<?xml version="1.0" standalone="no"?>
<!DOCTYPE svg PUBLIC "-//W3C//DTD SVG 20010904//EN"
 "http://www.w3.org/TR/2001/REC-SVG-20010904/DTD/svg10.dtd">
<svg version="1.0" xmlns="http://www.w3.org/2000/svg"
 width="583.000000pt" height="425.000000pt" viewBox="0 0 583.000000 425.000000"
 preserveAspectRatio="xMidYMid meet">

<g transform="translate(0.000000,425.000000) scale(0.100000,-0.100000)"
fill="#000000" stroke="none">
<path d="M1184 3961 c-132 -36 -232 -99 -320 -202 -71 -83 -110 -166 -135
-284 -19 -89 -20 -109 -10 -177 34 -227 146 -378 371 -501 31 -17 32 -19 26
-65 -8 -61 9 -190 35 -269 24 -73 81 -164 155 -249 30 -34 54 -66 54 -72 0
-10 -54 -33 -145 -62 -104 -33 -304 -148 -426 -246 -136 -108 -190 -195 -170
-271 21 -78 79 -124 155 -125 54 -1 83 15 194 110 51 44 123 99 160 121 88 53
235 113 350 142 125 32 127 31 127 -96 l0 -98 -131 -52 c-206 -81 -330 -155
-501 -297 -87 -73 -184 -184 -239 -275 -25 -42 -34 -68 -34 -101 0 -92 70
-162 163 -162 56 0 98 27 154 101 100 132 237 252 382 334 87 49 276 125 311
125 21 0 82 -75 99 -123 11 -31 23 -20 -134 -124 -191 -126 -351 -289 -470
-479 -69 -110 -91 -179 -75 -232 35 -109 166 -156 247 -88 16 13 53 66 83 117
72 123 256 311 381 392 112 72 242 137 273 137 14 0 54 -15 88 -34 99 -53 232
-102 363 -132 108 -25 139 -28 310 -28 170 0 202 2 308 26 126 29 286 87 377
137 30 17 62 31 70 31 22 0 150 -63 250 -122 102 -62 315 -270 370 -362 102
-170 124 -191 205 -191 39 0 61 6 82 21 84 62 96 149 37 267 -57 112 -118 191
-259 332 -106 107 -154 146 -262 215 -73 47 -133 89 -133 93 0 12 75 120 95
137 15 12 27 10 98 -14 45 -16 127 -51 181 -78 172 -85 285 -176 412 -334 41
-52 88 -101 104 -109 44 -23 111 -19 151 8 74 50 98 131 64 214 -37 89 -214
284 -345 379 -110 80 -298 177 -470 241 l-75 28 -3 96 c-4 131 -3 131 138 96
204 -50 364 -134 528 -276 102 -88 144 -107 204 -91 74 21 118 79 118 159 0
74 -29 118 -144 220 -126 111 -300 209 -486 276 -58 20 -109 41 -113 45 -5 4
23 42 61 84 124 136 171 250 181 435 4 70 11 126 17 128 43 14 150 89 204 143
71 71 136 181 165 284 25 86 16 264 -18 364 -61 181 -193 307 -384 372 -73 24
-108 30 -177 30 -130 0 -126 8 -126 -248 0 -148 -3 -211 -12 -220 -9 -9 -75
-12 -234 -12 -167 0 -225 -3 -231 -12 -4 -7 -7 -62 -7 -123 2 -124 25 -210 86
-313 69 -118 212 -235 333 -272 53 -16 65 -34 65 -95 0 -154 -100 -279 -255
-320 -97 -25 -101 -23 -195 67 -178 170 -391 286 -640 347 -171 42 -437 44
-635 5 -245 -49 -489 -178 -665 -350 -79 -78 -88 -84 -127 -84 -70 0 -165 36
-219 82 -62 54 -69 63 -100 121 -43 83 -43 217 0 217 8 0 56 21 107 47 157 78
282 227 325 387 20 71 29 234 15 269 l-11 27 -219 0 c-121 0 -226 3 -235 6
-14 5 -16 35 -16 223 0 119 -5 223 -10 231 -15 24 -150 24 -236 1z"/>
</g>
</svg>
